<?xml version="1.0" encoding="utf-8"?>
<!-- Generator: Adobe Illustrator 21.0.0, SVG Export Plug-In . SVG Version: 6.00 Build 0)  -->
<svg version="1.1" id="Capa_1" xmlns="http://www.w3.org/2000/svg" xmlns:xlink="http://www.w3.org/1999/xlink" x="0px" y="0px"
	 viewBox="0 0 12 12" style="enable-background:new 0 0 12 12;" xml:space="preserve">
<style type="text/css">
	.st0{fill:#9AA6AA;}
</style>
<title>info</title>
<desc>Created with Sketch.</desc>
<g id="Page-1">
	<g id="Detall-Empreses-_x2F_-Poligons" transform="translate(-1314.000000, -170.000000)">
		<g id="Group-11-Copy-3" transform="translate(1292.000000, 157.000000)">
			<g id="info" transform="translate(22.000000, 13.000000)">
				<path id="Shape" class="st0" d="M9.2,10.7L9,11.4c-0.6,0.2-1,0.3-1.4,0.5C7.3,11.9,6.9,12,6.4,12c-0.7,0-1.2-0.1-1.6-0.4
					c-0.4-0.3-0.6-0.7-0.6-1.1c0-0.2,0-0.4,0-0.5c0-0.2,0.1-0.4,0.1-0.6L5.1,7c0.1-0.2,0.1-0.4,0.2-0.6c0-0.2,0.1-0.4,0.1-0.5
					c0-0.3-0.1-0.5-0.2-0.6C5,5.2,4.8,5.1,4.4,5.1c-0.2,0-0.4,0-0.6,0.1C3.6,5.3,3.5,5.3,3.3,5.4l0.2-0.7C4,4.5,4.4,4.4,4.9,4.2
					c0.4-0.1,0.8-0.2,1.2-0.2c0.7,0,1.2,0.1,1.6,0.4C8,4.8,8.2,5.2,8.2,5.6c0,0.1,0,0.3,0,0.5c0,0.2-0.1,0.5-0.1,0.7L7.3,9
					C7.3,9.2,7.2,9.4,7.2,9.6c0,0.2-0.1,0.4-0.1,0.5c0,0.3,0.1,0.5,0.2,0.6c0.1,0.1,0.4,0.2,0.8,0.2c0.2,0,0.4,0,0.6-0.1
					C8.9,10.8,9.1,10.7,9.2,10.7z M9.3,1.4c0,0.4-0.2,0.7-0.5,1C8.5,2.7,8.1,2.8,7.6,2.8c-0.5,0-0.9-0.1-1.2-0.4
					c-0.3-0.3-0.5-0.6-0.5-1c0-0.4,0.2-0.7,0.5-1C6.8,0.1,7.2,0,7.6,0c0.5,0,0.9,0.1,1.2,0.4C9.2,0.7,9.3,1,9.3,1.4z"/>
			</g>
		</g>
	</g>
</g>
</svg>
