<?xml version="1.0" encoding="UTF-8"?>
<svg width="48px" height="48px" viewBox="0 0 48 48" version="1.1" xmlns="http://www.w3.org/2000/svg" xmlns:xlink="http://www.w3.org/1999/xlink">
    <!-- Generator: Sketch 47 (45396) - http://www.bohemiancoding.com/sketch -->
    <title>Group 7</title>
    <desc>Created with Sketch.</desc>
    <defs></defs>
    <g id="Page-1" stroke="none" stroke-width="1" fill="none" fill-rule="evenodd">
        <g id="Detall-Empreses-/-Poligons-Copy-2" transform="translate(-510.000000, -478.000000)">
            <g id="Group-10" transform="translate(371.000000, 478.000000)">
                <g id="Group-7" transform="translate(139.000000, 0.000000)">
                    <circle id="Oval-Copy-2" fill="#4A90E2" cx="24" cy="24" r="24"></circle>
                    <path d="M29.6470588,24.7058824 C28.8677647,24.7058824 28.2352941,24.0734118 28.2352941,23.2941176 C28.2352941,22.5148235 28.8677647,21.8823529 29.6470588,21.8823529 C30.4263529,21.8823529 31.0588235,22.5148235 31.0588235,23.2941176 C31.0588235,24.0734118 30.4263529,24.7058824 29.6470588,24.7058824 L29.6470588,24.7058824 Z M24,24.7058824 C23.2207059,24.7058824 22.5882353,24.0734118 22.5882353,23.2941176 C22.5882353,22.5148235 23.2207059,21.8823529 24,21.8823529 C24.7792941,21.8823529 25.4117647,22.5148235 25.4117647,23.2941176 C25.4117647,24.0734118 24.7792941,24.7058824 24,24.7058824 L24,24.7058824 Z M18.3529412,24.7058824 C17.5736471,24.7058824 16.9411765,24.0734118 16.9411765,23.2941176 C16.9411765,22.5148235 17.5736471,21.8823529 18.3529412,21.8823529 C19.1322353,21.8823529 19.7647059,22.5148235 19.7647059,23.2941176 C19.7647059,24.0734118 19.1322353,24.7058824 18.3529412,24.7058824 L18.3529412,24.7058824 Z M24,13.4117647 C17.7628235,13.4117647 12.7058824,17.8369412 12.7058824,23.2941176 C12.7058824,26.4134118 14.3611765,29.1910588 16.9411765,31.0016471 L16.9411765,36 L21.8887059,32.9978824 C22.5734118,33.1108235 23.2778824,33.1764706 24,33.1764706 C30.2371765,33.1764706 35.2941176,28.752 35.2941176,23.2941176 C35.2941176,17.8369412 30.2371765,13.4117647 24,13.4117647 L24,13.4117647 Z" id="Fill-189" fill="#FFFFFE"></path>
                </g>
            </g>
        </g>
    </g>
</svg>