<?xml version="1.0" encoding="UTF-8"?>
<svg width="48px" height="48px" viewBox="0 0 48 48" version="1.1" xmlns="http://www.w3.org/2000/svg" xmlns:xlink="http://www.w3.org/1999/xlink">
    <!-- Generator: Sketch 47 (45396) - http://www.bohemiancoding.com/sketch -->
    <title>Group 8</title>
    <desc>Created with Sketch.</desc>
    <defs></defs>
    <g id="Page-1" stroke="none" stroke-width="1" fill="none" fill-rule="evenodd">
        <g id="Detall-Empreses-/-Poligons-Copy-2" transform="translate(-439.000000, -478.000000)">
            <g id="Group-10" transform="translate(371.000000, 478.000000)">
                <g id="Group-8" transform="translate(68.000000, 0.000000)">
                    <circle id="Oval-Copy" fill="#21D37C" cx="24" cy="24" r="24"></circle>
                    <path d="M33.9956699,15.1515882 L31.9641405,13.1257059 C31.4036699,12.5659412 30.4937875,12.5659412 29.932611,13.1257059 L26.8853169,17.1774706 C26.4201405,17.8628824 26.3248463,18.6435882 26.8853169,19.2033529 L28.1290816,20.4435882 C27.2071993,21.6788824 26.1003757,23.0257059 24.8544934,24.2680588 C23.4455522,25.6727647 21.8784934,26.9497059 20.4695522,27.9986471 L19.2674346,26.8007647 C18.706964,26.241 17.9241405,26.3355882 17.2359052,26.8007647 L13.1728463,29.8395882 C12.4916699,30.309 12.6116699,31.3057059 13.1728463,31.8654706 L15.2043757,33.8906471 C16.3267287,35.0101765 17.7857875,34.6515882 19.2674346,33.8906471 C19.2674346,33.8906471 23.7519052,31.3805294 27.5911993,27.5518235 C31.2024934,23.9504118 33.9956699,19.2033529 33.9956699,19.2033529 C34.5780228,17.6059412 35.1180228,16.2704118 33.9956699,15.1515882" id="Fill-178" fill="#FFFFFE"></path>
                </g>
            </g>
        </g>
    </g>
</svg>