<?xml version="1.0" encoding="UTF-8"?>
<svg width="48px" height="48px" viewBox="0 0 48 48" version="1.1" xmlns="http://www.w3.org/2000/svg" xmlns:xlink="http://www.w3.org/1999/xlink">
    <!-- Generator: Sketch 47 (45396) - http://www.bohemiancoding.com/sketch -->
    <title>Group 9</title>
    <desc>Created with Sketch.</desc>
    <defs></defs>
    <g id="Page-1" stroke="none" stroke-width="1" fill="none" fill-rule="evenodd">
        <g id="Detall-Empreses-/-Poligons-Copy-2" transform="translate(-371.000000, -478.000000)">
            <g id="Group-10" transform="translate(371.000000, 478.000000)">
                <g id="Group-9">
                    <circle id="Oval" fill="#3BDAEB" cx="24" cy="24" r="24"></circle>
                    <path d="M15.3797647,31.3115294 C17.04,33.2541176 19.3482353,34.6298824 21.9712941,35.1035294 C21.4701176,33.6494118 20.9647059,31.8282353 20.5595294,29.988 C18.7524706,30.3105882 16.8995294,30.8082353 15.3797647,31.3115294 L15.3797647,31.3115294 Z M20.2595294,28.5084706 C20.0075294,27.1510588 19.8338824,25.8423529 19.7781176,24.7058824 L12.7058824,24.7058824 C12.8272941,26.6414118 13.4392941,28.4421176 14.4169412,29.9915294 L15.3967059,29.6470588 C16.8938824,29.1197647 18.5357647,28.7442353 20.2595294,28.5084706 L20.2595294,28.5084706 Z M23.9964706,29.6301176 C23.3625882,29.6301176 22.6658824,29.6901176 21.9494118,29.7790588 C22.4195294,31.8148235 23.0463529,33.8025882 23.6724706,35.2778824 C23.7811765,35.2807059 23.8870588,35.2941176 23.9964706,35.2941176 C24.1058824,35.2941176 24.2117647,35.2807059 24.3204706,35.2778824 C24.9465882,33.8025882 25.5734118,31.8148235 26.0435294,29.7790588 C25.3270588,29.6901176 24.6303529,29.6301176 23.9964706,29.6301176 L23.9964706,29.6301176 Z M20.2595294,19.4915294 C18.5357647,19.2557647 16.8938824,18.8802353 15.3967059,18.3529412 L14.4169412,18.0084706 C13.4392941,19.5578824 12.8272941,21.3585882 12.7058824,23.2941176 L19.7781176,23.2941176 C19.8338824,22.1576471 20.0075294,20.8489412 20.2595294,19.4915294 L20.2595294,19.4915294 Z M26.0216471,35.1035294 C28.6447059,34.6298824 30.9529412,33.2541176 32.6131765,31.3115294 C31.0934118,30.8082353 29.2404706,30.3105882 27.4334118,29.988 C27.0282353,31.8282353 26.5228235,33.6494118 26.0216471,35.1035294 L26.0216471,35.1035294 Z M27.7334118,28.5084706 C29.4571765,28.7442353 31.0990588,29.1197647 32.5962353,29.6470588 L33.5767059,29.9915294 C34.5536471,28.4421176 35.1656471,26.6414118 35.2870588,24.7058824 L28.2148235,24.7058824 C28.1590588,25.8423529 27.9854118,27.1510588 27.7334118,28.5084706 L27.7334118,28.5084706 Z M32.7451765,16.8508235 C31.0757647,14.8235294 28.7167059,13.3835294 26.0216471,12.8971765 C26.5256471,14.3604706 27.0352941,16.1943529 27.4411765,18.0458824 C29.2496471,17.7585882 31.1689412,17.3138824 32.7451765,16.8508235 L32.7451765,16.8508235 Z M27.7334118,19.4915294 C27.9854118,20.8489412 28.1590588,22.1576471 28.2148235,23.2941176 L35.2870588,23.2941176 C35.1656471,21.3585882 34.5536471,19.5578824 33.5767059,18.0084706 L32.5962353,18.3529412 C31.0990588,18.8802353 29.4571765,19.2557647 27.7334118,19.4915294 L27.7334118,19.4915294 Z M23.9964706,18.3698824 C24.6105882,18.3698824 25.308,18.3211765 26.0470588,18.2371765 C25.5762353,16.1950588 24.948,14.2009412 24.3204706,12.7221176 C24.2117647,12.7192941 24.1058824,12.7058824 23.9964706,12.7058824 C23.8870588,12.7058824 23.7811765,12.7192941 23.6724706,12.7221176 C23.0463529,14.1974118 22.4195294,16.1851765 21.9494118,18.2216471 C22.6658824,18.3098824 23.3625882,18.3698824 23.9964706,18.3698824 L23.9964706,18.3698824 Z M21.9712941,12.8971765 C19.3482353,13.3701176 17.04,14.7458824 15.3797647,16.6884706 C16.8995294,17.1917647 18.7524706,17.6894118 20.5595294,18.012 C20.9647059,16.1717647 21.4701176,14.3505882 21.9712941,12.8971765 L21.9712941,12.8971765 Z M21.6458824,28.3362353 C22.4152941,28.2705882 23.1988235,28.2352941 23.9964706,28.2352941 C24.7941176,28.2352941 25.5776471,28.2705882 26.3470588,28.3362353 C26.5898824,27.0621176 26.7501176,25.8190588 26.8023529,24.7058824 L21.1912941,24.7058824 C21.2428235,25.8190588 21.4037647,27.0621176 21.6458824,28.3362353 L21.6458824,28.3362353 Z M26.3470588,19.6637647 C25.5776471,19.7294118 24.7941176,19.7647059 23.9964706,19.7647059 C23.1988235,19.7647059 22.4152941,19.7294118 21.6458824,19.6637647 C21.4037647,20.9385882 21.2428235,22.1809412 21.1912941,23.2941176 L26.8023529,23.2941176 C26.7501176,22.1809412 26.5898824,20.9385882 26.3470588,19.6637647 L26.3470588,19.6637647 Z" id="Fill-110" fill="#FFFFFE"></path>
                </g>
            </g>
        </g>
    </g>
</svg>